<?xml version="1.0" standalone="no"?>
<!DOCTYPE svg PUBLIC "-//W3C//DTD SVG 20010904//EN"
 "http://www.w3.org/TR/2001/REC-SVG-20010904/DTD/svg10.dtd">
<svg version="1.0" xmlns="http://www.w3.org/2000/svg"
 width="488.000000pt" height="432.000000pt" viewBox="0 0 488.000000 432.000000"
 preserveAspectRatio="xMidYMid meet">

<g transform="translate(0.000000,432.000000) scale(0.100000,-0.100000)"
fill="#000000" stroke="none">
<path d="M2417 3929 c7 -7 15 -10 18 -7 3 3 -2 9 -12 12 -14 6 -15 5 -6 -5z"/>
<path d="M2536 3913 c-6 -14 -5 -15 5 -6 7 7 10 15 7 18 -3 3 -9 -2 -12 -12z"/>
<path d="M2570 3911 c0 -6 4 -13 10 -16 6 -3 7 1 4 9 -7 18 -14 21 -14 7z"/>
<path d="M2488 3903 c7 -3 16 -2 19 1 4 3 -2 6 -13 5 -11 0 -14 -3 -6 -6z"/>
<path d="M2620 3898 c0 -6 3 -8 7 -5 3 4 15 -5 25 -20 10 -16 18 -23 18 -16 0
6 -5 15 -10 18 -6 4 -8 10 -5 15 3 4 -2 11 -11 14 -22 8 -24 8 -24 -6z"/>
<path d="M2250 3893 c0 -15 18 -35 23 -27 3 5 -1 15 -9 22 -8 7 -14 9 -14 5z"/>
<path d="M2196 3859 c-11 -10 -16 -22 -13 -26 4 -3 7 -1 7 6 0 7 6 11 13 8 8
-3 14 3 14 14 2 23 3 23 -21 -2z"/>
<path d="M2231 3864 c0 -11 3 -14 6 -6 3 7 2 16 -1 19 -3 4 -6 -2 -5 -13z"/>
<path d="M2700 3840 c0 -5 5 -10 11 -10 5 0 7 5 4 10 -3 6 -8 10 -11 10 -2 0
-4 -4 -4 -10z"/>
<path d="M2733 3835 c0 -8 4 -12 9 -9 5 3 6 10 3 15 -9 13 -12 11 -12 -6z"/>
<path d="M2771 3813 c7 -12 15 -20 18 -17 3 2 -3 12 -13 22 -17 16 -18 16 -5
-5z"/>
<path d="M2145 3809 c-4 -6 -5 -12 -2 -15 2 -3 7 2 10 11 7 17 1 20 -8 4z"/>
<path d="M2095 3781 c-3 -5 -2 -12 3 -15 5 -3 9 1 9 9 0 17 -3 19 -12 6z"/>
<path d="M2065 3729 c-4 -6 -5 -12 -2 -15 2 -3 7 2 10 11 7 17 1 20 -8 4z"/>
<path d="M2833 3726 c0 -7 6 -13 14 -13 7 0 13 4 13 8 0 4 -6 9 -13 12 -8 3
-14 0 -14 -7z"/>
<path d="M2020 3668 c-13 -18 -17 -27 -8 -21 8 7 18 11 21 8 4 -3 5 -2 2 1 -2
4 0 15 6 25 15 29 5 23 -21 -13z"/>
<path d="M2895 3630 c-3 -6 1 -7 9 -4 18 7 21 14 7 14 -6 0 -13 -4 -16 -10z"/>
<path d="M2008 3623 c7 -3 16 -2 19 1 4 3 -2 6 -13 5 -11 0 -14 -3 -6 -6z"/>
<path d="M2006 3595 c-3 -8 -1 -15 4 -15 6 0 10 7 10 15 0 8 -2 15 -4 15 -2 0
-6 -7 -10 -15z"/>
<path d="M2900 3565 c0 -8 2 -15 4 -15 2 0 6 7 10 15 3 8 1 15 -4 15 -6 0 -10
-7 -10 -15z"/>
<path d="M2926 3563 c-6 -14 -5 -15 5 -6 7 7 10 15 7 18 -3 3 -9 -2 -12 -12z"/>
<path d="M2852 3550 c-7 -11 -9 -20 -4 -20 4 0 13 9 20 20 7 11 9 20 4 20 -4
0 -13 -9 -20 -20z"/>
<path d="M2950 3555 c-9 -10 -9 -15 -1 -15 6 0 11 5 11 12 0 9 3 9 12 0 7 -7
16 -12 21 -12 5 0 2 7 -7 15 -8 8 -17 15 -19 15 -3 0 -10 -7 -17 -15z"/>
<path d="M3106 3561 c-3 -5 0 -11 7 -14 8 -3 14 1 14 9 0 16 -13 19 -21 5z"/>
<path d="M1754 3548 c-5 -7 -1 -9 9 -5 10 3 17 2 17 -3 0 -6 4 -10 8 -10 5 0
9 6 9 13 0 16 -34 20 -43 5z"/>
<path d="M2040 3550 c0 -5 5 -10 11 -10 5 0 7 5 4 10 -3 6 -8 10 -11 10 -2 0
-4 -4 -4 -10z"/>
<path d="M3143 3546 c0 -8 9 -17 20 -20 18 -4 18 -4 1 15 -21 23 -21 23 -21 5z"/>
<path d="M3197 3539 c7 -7 15 -10 18 -7 3 3 -2 9 -12 12 -14 6 -15 5 -6 -5z"/>
<path d="M2924 3519 c-3 -6 -1 -16 5 -22 9 -9 10 -7 5 7 -6 15 -4 17 6 11 9
-5 11 -4 6 3 -9 15 -13 15 -22 1z"/>
<path d="M1969 3518 c-8 -27 -5 -36 9 -30 10 4 12 7 4 10 -7 2 -10 8 -6 13 3
5 3 9 0 9 -3 0 -6 -1 -7 -2z"/>
<path d="M3218 3503 c7 -3 16 -2 19 1 4 3 -2 6 -13 5 -11 0 -14 -3 -6 -6z"/>
<path d="M3300 3463 c0 -15 19 -37 26 -31 3 4 -1 14 -10 23 -9 9 -16 13 -16 8z"/>
<path d="M3340 3410 c0 -5 5 -10 11 -10 5 0 7 5 4 10 -3 6 -8 10 -11 10 -2 0
-4 -4 -4 -10z"/>
<path d="M1582 3342 c-11 -25 -11 -25 4 -10 9 9 15 21 13 27 -2 6 -10 -2 -17
-17z"/>
<path d="M3350 3345 c0 -14 2 -25 4 -25 2 0 6 11 8 25 3 14 1 25 -3 25 -5 0
-9 -11 -9 -25z"/>
<path d="M1550 3296 c0 -2 7 -7 16 -10 8 -3 12 -2 9 4 -6 10 -25 14 -25 6z"/>
<path d="M2635 3180 c-19 -7 -19 -7 4 -15 12 -4 27 -3 33 3 13 13 -11 21 -37
12z"/>
<path d="M2570 3170 c-9 -6 -10 -10 -3 -10 6 0 15 5 18 10 8 12 4 12 -15 0z"/>
<path d="M2758 3157 c-10 -6 -8 -7 4 -4 9 3 18 1 21 -6 2 -7 6 -5 9 4 7 18
-14 21 -34 6z"/>
<path d="M2133 3144 c0 -7 6 -10 14 -7 7 3 13 8 13 12 0 4 -6 8 -13 8 -8 0
-14 -6 -14 -13z"/>
<path d="M2370 3149 c0 -5 5 -7 10 -4 6 3 10 8 10 11 0 2 -4 4 -10 4 -5 0 -10
-5 -10 -11z"/>
<path d="M2045 3120 c3 -5 8 -10 11 -10 2 0 4 5 4 10 0 6 -5 10 -11 10 -5 0
-7 -4 -4 -10z"/>
<path d="M2776 3113 c-6 -14 -5 -15 5 -6 7 7 10 15 7 18 -3 3 -9 -2 -12 -12z"/>
<path d="M2805 3090 c2 -19 4 -38 4 -41 1 -3 8 -6 17 -6 15 0 15 1 1 12 -14
10 -14 15 -1 40 12 23 12 26 0 16 -11 -9 -15 -9 -19 1 -3 7 -3 -3 -2 -22z"/>
<path d="M2933 3093 c1 -21 43 -50 55 -38 3 3 0 5 -7 5 -7 0 -9 5 -5 12 4 7 3
8 -4 4 -7 -4 -12 -1 -12 9 0 9 -4 14 -9 11 -5 -4 -11 0 -14 6 -3 7 -4 3 -4 -9z"/>
<path d="M2400 3090 c0 -5 5 -10 11 -10 5 0 7 5 4 10 -3 6 -8 10 -11 10 -2 0
-4 -4 -4 -10z"/>
<path d="M1934 3072 c3 -5 0 -13 -6 -15 -9 -4 -10 -6 -1 -6 17 -1 25 16 12 25
-7 4 -9 3 -5 -4z"/>
<path d="M2372 3055 c-10 -12 -10 -15 2 -15 7 0 16 7 20 15 7 19 -5 19 -22 0z"/>
<path d="M1885 3029 c2 -11 -4 -20 -16 -24 -10 -4 -19 -10 -19 -15 0 -5 -6 -7
-13 -4 -8 3 -20 -2 -27 -11 -15 -18 0 -21 18 -3 9 9 12 9 12 -2 0 -13 2 -13
10 0 5 8 14 16 20 16 5 1 15 2 20 3 6 0 10 6 10 12 0 7 8 18 18 25 16 13 16
14 -2 7 -12 -4 -17 -3 -13 4 3 5 0 10 -8 10 -7 0 -12 -8 -10 -18z"/>
<path d="M3380 3021 c0 -14 -4 -20 -12 -15 -7 4 -8 3 -4 -4 12 -19 33 -14 31
8 -2 28 -15 38 -15 11z"/>
<path d="M1553 3003 c0 -7 4 -13 8 -13 4 0 9 6 12 13 3 8 0 14 -7 14 -7 0 -13
-6 -13 -14z"/>
<path d="M2266 2991 c-17 -18 -16 -20 4 -26 12 -4 24 -4 27 -1 4 3 -1 6 -10 6
-9 0 -17 5 -17 10 0 6 6 10 14 10 8 0 18 5 21 10 11 18 -21 10 -39 -9z"/>
<path d="M2396 2954 c2 -18 -2 -24 -11 -20 -10 3 -12 -1 -9 -17 3 -12 6 -28 6
-34 2 -17 11 -7 14 15 2 9 5 32 9 50 3 17 2 32 -3 32 -5 0 -8 -12 -6 -26z"/>
<path d="M1525 2960 c-3 -5 -1 -10 4 -10 6 0 11 5 11 10 0 6 -2 10 -4 10 -3 0
-8 -4 -11 -10z"/>
<path d="M1886 2953 c-6 -14 -5 -15 5 -6 7 7 10 15 7 18 -3 3 -9 -2 -12 -12z"/>
<path d="M2254 2933 c2 -9 8 -18 15 -19 7 -2 7 0 1 3 -8 3 -7 9 1 19 9 11 8
14 -4 14 -9 0 -14 -7 -13 -17z"/>
<path d="M1757 2906 c-3 -8 0 -21 6 -30 11 -15 13 -14 24 3 9 15 10 22 1 27
-7 4 -8 3 -4 -4 4 -7 1 -12 -8 -12 -10 0 -13 6 -10 15 4 8 4 15 1 15 -3 0 -7
-6 -10 -14z"/>
<path d="M3361 2905 c0 -11 6 -28 13 -38 12 -15 14 -15 19 -2 4 8 1 14 -5 12
-6 -1 -15 9 -19 23 -6 20 -7 21 -8 5z"/>
<path d="M1530 2884 c0 -5 7 -18 15 -28 8 -11 15 -16 15 -10 0 5 -7 18 -15 28
-8 11 -15 16 -15 10z"/>
<path d="M1825 2858 l-20 -21 23 12 c12 6 22 16 22 21 0 13 -2 12 -25 -12z"/>
<path d="M2360 2860 c8 -5 20 -10 25 -10 6 0 3 5 -5 10 -8 5 -19 10 -25 10 -5
0 -3 -5 5 -10z"/>
<path d="M1523 2845 c0 -8 4 -12 9 -9 5 3 6 10 3 15 -9 13 -12 11 -12 -6z"/>
<path d="M2256 2845 c-11 -8 -15 -15 -9 -15 6 0 16 7 23 15 16 19 11 19 -14 0z"/>
<path d="M1825 2829 c-4 -6 -5 -12 -2 -15 2 -3 7 2 10 11 7 17 1 20 -8 4z"/>
<path d="M3375 2830 c-3 -6 1 -7 9 -4 18 7 21 14 7 14 -6 0 -13 -4 -16 -10z"/>
<path d="M2975 2820 c-3 -5 -1 -10 4 -10 6 0 11 5 11 10 0 6 -2 10 -4 10 -3 0
-8 -4 -11 -10z"/>
<path d="M1519 2782 c5 -34 6 -35 9 -8 2 16 0 32 -5 37 -5 5 -7 -7 -4 -29z"/>
<path d="M1543 2765 c0 -27 2 -38 4 -22 2 15 2 37 0 50 -2 12 -4 0 -4 -28z"/>
<path d="M1783 2796 c-10 -11 -9 -16 5 -21 9 -3 13 -3 9 1 -4 4 -2 13 4 21 15
17 -2 16 -18 -1z"/>
<path d="M2321 2784 c0 -11 3 -14 6 -6 3 7 2 16 -1 19 -3 4 -6 -2 -5 -13z"/>
<path d="M1735 2779 c-11 -17 1 -21 15 -4 8 9 8 15 2 15 -6 0 -14 -5 -17 -11z"/>
<path d="M2924 2761 c0 -11 5 -17 13 -14 10 4 11 9 2 19 -15 18 -15 18 -15 -5z"/>
<path d="M2237 2740 c-3 -11 -1 -20 4 -20 5 0 9 9 9 20 0 11 -2 20 -4 20 -2 0
-6 -9 -9 -20z"/>
<path d="M2881 2723 c-1 -17 16 -25 25 -12 4 7 3 9 -4 5 -5 -3 -13 0 -15 6 -4
9 -6 10 -6 1z"/>
<path d="M1705 2710 c-3 -6 1 -7 9 -4 18 7 21 14 7 14 -6 0 -13 -4 -16 -10z"/>
<path d="M2351 2694 c0 -11 3 -14 6 -6 3 7 2 16 -1 19 -3 4 -6 -2 -5 -13z"/>
<path d="M2847 2683 c3 -7 9 -10 14 -7 14 8 11 21 -5 21 -8 0 -12 -6 -9 -14z"/>
<path d="M2730 2646 c0 -2 7 -9 15 -16 13 -11 14 -10 9 4 -5 14 -24 23 -24 12z"/>
<path d="M2723 2618 c7 -19 -7 -33 -43 -42 -24 -7 -24 -6 -6 8 21 17 10 22
-14 6 -13 -8 -13 -11 3 -27 10 -11 17 -13 17 -5 0 7 6 12 13 12 8 0 23 8 34
18 18 15 19 19 5 32 -14 13 -15 12 -9 -2z"/>
<path d="M2775 2620 c-3 -6 1 -7 9 -4 18 7 21 14 7 14 -6 0 -13 -4 -16 -10z"/>
<path d="M3390 2590 c0 -5 5 -10 10 -10 6 0 10 5 10 10 0 6 -4 10 -10 10 -5 0
-10 -4 -10 -10z"/>
<path d="M2176 2554 c-8 -22 -4 -25 11 -9 7 8 9 16 4 19 -5 3 -12 -1 -15 -10z"/>
<path d="M2605 2560 c-3 -5 -1 -10 4 -10 6 0 11 5 11 10 0 6 -2 10 -4 10 -3 0
-8 -4 -11 -10z"/>
<path d="M3390 2559 c0 -5 5 -7 10 -4 6 3 10 8 10 11 0 2 -4 4 -10 4 -5 0 -10
-5 -10 -11z"/>
<path d="M2327 2548 c2 -5 13 -6 23 -3 11 3 20 0 24 -10 6 -18 26 -11 26 8 0
8 -3 7 -9 -2 -7 -11 -9 -11 -13 0 -3 8 -16 14 -31 14 -14 1 -23 -3 -20 -7z"/>
<path d="M2292 2516 c-9 -20 -8 -27 6 -38 15 -11 16 -11 4 3 -10 14 -10 20 3
32 17 17 19 27 7 27 -5 0 -14 -11 -20 -24z"/>
<path d="M2506 2526 c5 -13 4 -17 -4 -12 -7 4 -12 2 -12 -3 0 -14 17 -14 26 0
3 6 1 16 -5 22 -9 9 -10 7 -5 -7z"/>
<path d="M2580 2519 c0 -5 5 -7 10 -4 6 3 10 8 10 11 0 2 -4 4 -10 4 -5 0 -10
-5 -10 -11z"/>
<path d="M2635 2520 c-3 -5 1 -10 9 -10 9 0 16 5 16 10 0 6 -4 10 -9 10 -6 0
-13 -4 -16 -10z"/>
<path d="M2310 2499 c0 -5 5 -7 10 -4 6 3 10 8 10 11 0 2 -4 4 -10 4 -5 0 -10
-5 -10 -11z"/>
<path d="M3413 2484 c-6 -13 -7 -24 -3 -24 9 0 25 39 18 45 -2 2 -8 -7 -15
-21z"/>
<path d="M1491 2464 c0 -11 3 -14 6 -6 3 7 2 16 -1 19 -3 4 -6 -2 -5 -13z"/>
<path d="M2156 2458 c-8 -26 -2 -46 13 -43 21 3 26 24 7 31 -9 3 -13 10 -10
15 3 5 3 9 -1 9 -3 0 -7 -6 -9 -12z m24 -28 c0 -5 -2 -10 -4 -10 -3 0 -8 5
-11 10 -3 6 -1 10 4 10 6 0 11 -4 11 -10z"/>
<path d="M2538 2458 c5 -5 16 -8 23 -6 8 3 3 7 -10 11 -17 4 -21 3 -13 -5z"/>
<path d="M2679 2461 c7 -5 11 -13 7 -19 -3 -6 -1 -14 5 -18 8 -4 9 -3 5 4 -4
7 -2 12 5 12 8 0 8 4 -1 15 -7 8 -18 15 -24 15 -6 0 -5 -4 3 -9z"/>
<path d="M2560 2433 c0 -5 8 -17 17 -28 14 -18 15 -18 9 -2 -3 10 -6 23 -6 28
0 5 -4 9 -10 9 -5 0 -10 -3 -10 -7z"/>
<path d="M3412 2420 c9 -13 14 -16 20 -7 4 6 2 15 -5 19 -21 14 -28 9 -15 -12z"/>
<path d="M2155 2390 c-3 -5 -1 -10 4 -10 6 0 11 5 11 10 0 6 -2 10 -4 10 -3 0
-8 -4 -11 -10z"/>
<path d="M2630 2390 c0 -5 5 -10 10 -10 6 0 10 5 10 10 0 6 -4 10 -10 10 -5 0
-10 -4 -10 -10z"/>
<path d="M1502 2373 c-17 -30 -15 -37 4 -19 8 9 14 22 11 29 -2 7 -8 4 -15
-10z"/>
<path d="M2695 2369 c-11 -17 1 -21 15 -4 8 9 8 15 2 15 -6 0 -14 -5 -17 -11z"/>
<path d="M2675 2321 c-3 -5 -1 -12 5 -16 5 -3 10 1 10 9 0 18 -6 21 -15 7z"/>
<path d="M2245 2310 c3 -6 1 -10 -6 -10 -7 0 -10 -3 -6 -6 3 -3 13 -2 22 4 16
8 16 9 1 15 -10 4 -15 3 -11 -3z"/>
<path d="M2637 2299 c7 -7 15 -10 18 -7 3 3 -2 9 -12 12 -14 6 -15 5 -6 -5z"/>
<path d="M2782 2280 c-7 -12 -18 -17 -29 -14 -15 5 -16 4 -3 -5 11 -8 20 -6
34 9 11 11 18 22 15 24 -3 3 -10 -4 -17 -14z"/>
<path d="M2239 2263 c-13 -16 -12 -17 4 -4 9 7 17 15 17 17 0 8 -8 3 -21 -13z"/>
<path d="M2806 2255 c4 -8 10 -15 15 -15 4 0 6 7 3 15 -4 8 -10 15 -15 15 -4
0 -6 -7 -3 -15z"/>
<path d="M2710 2249 c0 -5 -4 -7 -10 -4 -5 3 -10 -1 -10 -9 0 -9 -4 -16 -10
-16 -5 0 -10 -4 -10 -10 0 -19 19 -10 40 20 12 17 17 30 11 30 -6 0 -11 -5
-11 -11z"/>
<path d="M1509 2233 c-1 -5 -1 -12 0 -17 1 -5 -5 -6 -14 -3 -9 4 -15 1 -15 -9
0 -11 4 -13 17 -6 14 9 28 42 17 42 -2 0 -5 -3 -5 -7z"/>
<path d="M2200 2230 c-13 -8 -12 -10 3 -10 9 0 17 5 17 10 0 12 -1 12 -20 0z"/>
<path d="M1506 2185 c-11 -8 -17 -17 -14 -20 2 -3 13 4 23 15 21 23 18 25 -9
5z"/>
<path d="M2100 2191 c12 -8 12 -11 1 -11 -10 0 -10 -5 3 -25 11 -17 13 -25 4
-25 -6 0 -3 -7 8 -16 17 -14 17 -15 1 -10 -10 3 -15 2 -12 -3 3 -5 -5 -17 -17
-25 -12 -9 -18 -16 -13 -16 5 0 0 -7 -11 -15 -10 -8 -16 -15 -13 -15 4 0 28
20 55 45 30 29 41 45 31 45 -11 0 -14 5 -11 15 4 8 0 23 -7 32 -8 9 -13 19
-11 22 2 3 -2 7 -10 9 -9 2 -8 0 2 -7z"/>
<path d="M2846 2168 c4 -5 -2 -15 -12 -23 -11 -7 -16 -17 -12 -21 4 -4 16 4
27 17 14 17 20 20 21 9 0 -8 9 -21 19 -27 18 -11 18 -10 -2 21 -12 18 -27 33
-34 33 -7 0 -10 -4 -7 -9z"/>
<path d="M2890 2096 c0 -2 7 -7 16 -10 8 -3 12 -2 9 4 -6 10 -25 14 -25 6z"/>
<path d="M2800 2052 c0 -5 7 -15 15 -22 8 -7 15 -9 15 -6 0 4 -7 14 -15 22 -8
9 -15 11 -15 6z"/>
<path d="M3230 2049 c0 -5 5 -7 10 -4 6 3 10 8 10 11 0 2 -4 4 -10 4 -5 0 -10
-5 -10 -11z"/>
<path d="M1995 2010 c-3 -5 -1 -10 4 -10 6 0 11 5 11 10 0 6 -2 10 -4 10 -3 0
-8 -4 -11 -10z"/>
<path d="M2810 2000 c-9 -6 -10 -10 -3 -10 6 0 15 5 18 10 8 12 4 12 -15 0z"/>
<path d="M3166 2001 c-4 -5 3 -7 14 -4 23 6 26 13 6 13 -8 0 -17 -4 -20 -9z"/>
<path d="M1830 1970 c0 -5 5 -10 11 -10 5 0 7 5 4 10 -3 6 -8 10 -11 10 -2 0
-4 -4 -4 -10z"/>
<path d="M1800 1955 c-7 -9 -8 -15 -2 -15 5 0 12 7 16 15 3 8 4 15 2 15 -2 0
-9 -7 -16 -15z"/>
<path d="M2050 1960 c0 -5 5 -10 11 -10 5 0 7 5 4 10 -3 6 -8 10 -11 10 -2 0
-4 -4 -4 -10z"/>
<path d="M3110 1955 c-10 -12 -10 -15 2 -15 8 0 15 7 15 15 0 8 -1 15 -2 15
-2 0 -8 -7 -15 -15z"/>
<path d="M2220 1946 c0 -8 -9 -20 -20 -26 -11 -6 -20 -18 -20 -28 0 -10 3 -13
8 -7 12 16 52 36 62 30 5 -3 12 -1 15 5 4 6 3 10 -2 9 -19 -3 -34 2 -28 10 3
5 1 12 -5 16 -5 3 -10 -1 -10 -9z"/>
<path d="M3049 1951 c9 -6 10 -11 2 -15 -17 -11 -13 -24 8 -36 14 -7 22 -7 27
2 4 6 3 8 -2 5 -14 -8 -38 9 -30 22 4 6 12 11 17 11 6 0 7 -5 3 -12 -5 -7 -3
-8 6 -3 10 6 9 11 -5 22 -11 7 -24 13 -29 13 -6 0 -5 -4 3 -9z"/>
<path d="M1820 1943 c0 -6 7 -19 16 -27 8 -9 11 -16 6 -16 -5 0 -9 -7 -9 -15
0 -12 3 -12 17 3 14 14 15 19 4 25 -7 4 -18 15 -23 25 -6 9 -11 12 -11 5z"/>
<path d="M1782 1918 c5 -15 28 -23 28 -10 0 5 -7 13 -16 16 -10 4 -14 1 -12
-6z"/>
<path d="M1907 1917 c-3 -8 -2 -20 3 -26 5 -9 8 -4 8 13 0 29 -3 32 -11 13z"/>
<path d="M2920 1921 c0 -6 4 -13 10 -16 6 -3 7 1 4 9 -7 18 -14 21 -14 7z"/>
<path d="M3420 1920 c0 -6 7 -10 15 -10 8 0 15 2 15 4 0 2 -7 6 -15 10 -8 3
-15 1 -15 -4z"/>
<path d="M1941 1913 c-1 -17 16 -25 25 -12 4 7 3 9 -4 5 -5 -3 -13 0 -15 6 -4
9 -6 10 -6 1z"/>
<path d="M2901 1904 c0 -11 3 -14 6 -6 3 7 2 16 -1 19 -3 4 -6 -2 -5 -13z"/>
<path d="M2982 1904 c10 -10 20 -15 24 -12 3 4 -5 12 -18 18 -22 12 -22 12 -6
-6z"/>
<path d="M2110 1890 c0 -5 7 -10 16 -10 8 0 12 5 9 10 -3 6 -10 10 -16 10 -5
0 -9 -4 -9 -10z"/>
<path d="M2950 1896 c0 -2 7 -9 15 -16 13 -11 14 -10 9 4 -5 14 -24 23 -24 12z"/>
<path d="M3025 1890 c3 -5 8 -10 11 -10 2 0 4 5 4 10 0 6 -5 10 -11 10 -5 0
-7 -4 -4 -10z"/>
<path d="M2081 1874 c0 -11 3 -14 6 -6 3 7 2 16 -1 19 -3 4 -6 -2 -5 -13z"/>
<path d="M1467 1870 c8 -9 9 -19 2 -32 -15 -28 -4 -21 16 10 10 15 14 24 10
20 -5 -4 -15 -2 -24 4 -13 10 -14 10 -4 -2z"/>
<path d="M3435 1860 c-3 -6 1 -7 9 -4 18 7 21 14 7 14 -6 0 -13 -4 -16 -10z"/>
<path d="M3442 1736 c16 -12 16 -15 0 -47 -10 -19 -23 -33 -31 -31 -7 1 -10
-2 -6 -7 11 -18 33 0 50 41 13 33 14 43 3 49 -21 14 -35 10 -16 -5z"/>
<path d="M1466 1708 c3 -5 10 -6 15 -3 13 9 11 12 -6 12 -8 0 -12 -4 -9 -9z"/>
<path d="M1495 1699 c-4 -6 -5 -12 -2 -15 2 -3 7 2 10 11 7 17 1 20 -8 4z"/>
<path d="M1516 1642 c-2 -4 -1 -14 4 -22 7 -11 9 -9 7 8 -1 24 -3 26 -11 14z"/>
<path d="M1540 1609 c0 -5 5 -7 10 -4 6 3 10 8 10 11 0 2 -4 4 -10 4 -5 0 -10
-5 -10 -11z"/>
<path d="M1572 1576 c7 -8 15 -12 17 -11 5 6 -10 25 -20 25 -5 0 -4 -6 3 -14z"/>
<path d="M3326 1569 c-16 -16 -17 -19 -4 -19 9 0 19 7 22 16 9 24 4 24 -18 3z"/>
<path d="M1609 1557 c5 -5 19 -7 32 -5 20 3 19 5 -9 9 -20 3 -29 2 -23 -4z"/>
<path d="M1681 1549 c-1 -26 25 -31 27 -6 1 16 -1 18 -7 8 -7 -11 -9 -11 -14
0 -4 10 -6 10 -6 -2z"/>
<path d="M2623 1553 c9 -2 25 -2 35 0 9 3 1 5 -18 5 -19 0 -27 -2 -17 -5z"/>
<path d="M1843 1543 c26 -2 67 -2 90 0 23 2 2 3 -48 3 -49 0 -68 -1 -42 -3z"/>
<path d="M2198 1543 c45 -2 119 -2 165 0 45 1 8 3 -83 3 -91 0 -128 -2 -82 -3z"/>
<path d="M2758 1543 c46 -2 118 -2 160 0 42 1 5 3 -83 3 -88 0 -123 -2 -77 -3z"/>
<path d="M2275 1242 c-190 -21 -313 -144 -349 -349 -5 -28 -2 -33 14 -33 10 0
21 4 25 9 10 18 65 39 85 34 11 -3 20 -14 20 -24 0 -11 0 -22 1 -26 0 -4 -4
-9 -9 -11 -6 -2 -8 5 -5 16 3 12 -1 22 -11 25 -12 5 -16 0 -17 -21 0 -27 0
-27 -10 -4 -5 13 -13 21 -19 17 -6 -4 -4 -15 6 -30 9 -13 12 -30 8 -36 -5 -9
-10 -5 -16 11 -8 22 -9 23 -23 4 -14 -18 -14 -18 -15 4 0 12 -5 22 -11 22 -7
0 -9 -10 -5 -25 4 -14 2 -25 -4 -25 -19 0 -10 -43 16 -77 46 -60 136 -87 247
-73 201 25 336 187 337 406 0 66 -12 86 -56 91 -20 3 -24 -1 -24 -22 0 -20 -5
-25 -24 -25 -32 0 -40 14 -19 31 15 12 16 12 10 -3 -4 -12 -2 -15 9 -11 7 3
14 13 14 23 0 19 25 34 41 24 21 -12 7 16 -17 35 -41 33 -127 51 -199 43z m62
-91 c2 -9 9 -24 14 -33 5 -11 5 -19 -1 -23 -11 -7 -14 -45 -4 -45 4 0 13 8 20
18 13 16 13 16 14 -1 0 -10 -11 -22 -25 -27 -14 -5 -25 -16 -25 -25 0 -25 -60
-205 -82 -244 -11 -20 -27 -42 -36 -48 -20 -16 -64 -17 -80 -1 -14 14 -15 87
-2 142 5 25 5 46 -1 58 -15 27 -32 22 -25 -7 4 -14 2 -25 -4 -25 -5 0 -10 7
-10 16 0 10 -6 14 -15 10 -8 -3 -15 -3 -15 0 0 11 26 31 49 39 26 8 61 40 61
55 0 23 61 129 84 148 29 22 75 19 83 -7z m163 -31 c0 -5 -8 -10 -17 -10 -15
0 -16 2 -3 10 19 12 20 12 20 0z m-53 -36 c-3 -3 -12 -4 -19 -1 -8 3 -5 6 6 6
11 1 17 -2 13 -5z"/>
<path d="M2135 940 c3 -5 8 -10 11 -10 2 0 4 5 4 10 0 6 -5 10 -11 10 -5 0 -7
-4 -4 -10z"/>
<path d="M2790 1230 c-87 -16 -147 -76 -157 -157 -10 -85 29 -137 161 -215 57
-34 74 -70 50 -106 -14 -21 -22 -24 -59 -20 -49 6 -80 27 -121 81 -35 47 -71
64 -91 44 -14 -14 -63 -148 -63 -172 0 -20 27 -37 50 -30 11 3 34 18 51 32
l30 26 49 -27 c101 -55 251 -42 317 26 39 40 53 76 53 132 0 61 -30 98 -135
170 -78 53 -90 65 -93 93 -2 24 2 35 21 47 35 24 80 5 148 -61 73 -71 87 -68
116 17 12 36 22 77 22 93 1 24 -3 27 -30 27 -17 0 -45 -10 -61 -22 -29 -20
-32 -20 -62 -5 -31 17 -117 37 -146 34 -8 0 -31 -4 -50 -7z"/>
<path d="M1375 1187 c6 -37 -3 -80 -51 -248 -48 -171 -62 -209 -88 -237 -26
-27 -28 -34 -16 -42 16 -11 249 -14 274 -4 20 8 20 28 0 45 -17 14 -16 43 6
134 16 64 25 75 66 75 47 0 68 -24 59 -69 -15 -82 -17 -111 -12 -133 19 -73
209 -80 247 -9 14 28 13 30 -16 41 -25 10 -26 12 -19 78 6 60 4 69 -15 90 -11
12 -27 22 -35 22 -30 0 -14 16 34 37 108 45 125 177 32 235 -34 22 -48 23
-254 26 l-218 3 6 -44z m302 -49 c32 -26 0 -132 -44 -149 -40 -15 -83 -11 -83
7 0 37 33 140 48 152 18 13 57 8 79 -10z"/>
<path d="M3250 1216 c0 -8 4 -25 9 -38 6 -17 -1 -56 -26 -143 -18 -66 -36
-129 -38 -141 -17 -80 -59 -181 -83 -201 -23 -19 -25 -24 -12 -33 19 -13 450
-13 484 0 19 7 29 24 45 76 12 36 21 72 21 80 0 20 -56 18 -64 -2 -4 -9 -9
-14 -13 -11 -3 4 -28 -13 -54 -38 -44 -41 -53 -45 -99 -45 -33 0 -52 5 -56 13
-5 15 27 142 45 176 17 32 57 27 75 -8 16 -31 38 -44 59 -35 13 4 57 129 57
159 0 23 -42 18 -74 -10 -27 -23 -96 -36 -96 -19 0 17 43 150 52 162 12 14 96
16 118 2 8 -5 22 -31 31 -57 15 -44 18 -48 49 -48 31 0 35 4 51 50 21 60 23
97 7 113 -9 9 -78 12 -250 12 -200 0 -238 -2 -238 -14z m380 -400 c0 -3 -4 -8
-10 -11 -5 -3 -10 -1 -10 4 0 6 5 11 10 11 6 0 10 -2 10 -4z"/>
</g>
</svg>
